<svg width="44" height="44" viewBox="0 0 44 44" fill="none" xmlns="http://www.w3.org/2000/svg">
<path fill-rule="evenodd" clip-rule="evenodd" d="M22 12C18.13 12 15 15.13 15 19C15 23.17 19.42 28.92 21.24 31.11C21.64 31.59 22.37 31.59 22.77 31.11C24.58 28.92 29 23.17 29 19C29 15.13 25.87 12 22 12ZM17 19C17 16.24 19.24 14 22 14C24.76 14 27 16.24 27 19C27 21.88 24.12 26.19 22 28.88C19.92 26.21 17 21.85 17 19ZM19.5 19C19.5 20.38 20.62 21.5 22 21.5C23.38 21.5 24.5 20.38 24.5 19C24.5 17.62 23.38 16.5 22 16.5C20.62 16.5 19.5 17.62 19.5 19Z" fill="#234F68"/>
</svg>
