<!-- <svg width="19" height="9" viewBox="0 0 19 9" fill="none" xmlns="http://www.w3.org/2000/svg">
<path d="M1 4.5415L18 4.54151" stroke="white" stroke-width="0.8" stroke-linecap="round" stroke-linejoin="round"/>
<path d="M14.256 1L17.7976 4.54167L14.256 8.08333" stroke="white" stroke-width="0.8" stroke-linecap="round" stroke-linejoin="round"/>
</svg> -->

<svg width="22" height="17" viewBox="0 0 22 17" fill="none" xmlns="http://www.w3.org/2000/svg">
<path fill-rule="evenodd" clip-rule="evenodd" d="M21.1562 8.90261C21.2603 8.64562 21.2603 8.35464 21.1562 8.09765C21.1021 7.96491 21.0277 7.84916 20.9321 7.74508L13.4985 0.311418C13.0801 -0.103806 12.4079 -0.103806 11.9884 0.311418C11.5742 0.730889 11.5742 1.40204 11.9884 1.82151L17.6178 7.43818H1.06195C0.476817 7.43818 0 7.915 0 8.50013C0 9.08527 0.476817 9.56209 1.06195 9.56209H17.6178L11.9884 15.1788C11.7898 15.3784 11.6772 15.6513 11.6772 15.9338C11.6772 16.2163 11.7898 16.4903 11.9884 16.6888C12.188 16.8885 12.4609 17 12.7434 17C13.0259 17 13.2999 16.8885 13.4985 16.6888L20.9321 9.25518C21.0277 9.15111 21.1021 9.03536 21.1562 8.90261Z" fill="white"/>
</svg>
