<svg width="20" height="17" viewBox="0 0 20 17" fill="none" xmlns="http://www.w3.org/2000/svg">
<path fill-rule="evenodd" clip-rule="evenodd" d="M19.091 6.36365C19.091 5.86274 18.6828 5.45456 18.1819 5.45456H1.81827C1.31736 5.45456 0.90918 5.86274 0.90918 6.36365V9.54547C0.90918 10.7491 1.38827 11.9073 2.241 12.7591C3.09282 13.6118 4.251 14.0909 5.45463 14.0909H14.5455C15.7492 14.0909 16.9074 13.6118 17.7592 12.7591C18.6119 11.9073 19.091 10.7491 19.091 9.54547V6.36365Z" fill="#21628A"/>
<path fill-rule="evenodd" clip-rule="evenodd" d="M19.0909 5.45456H0.909091C0.408182 5.45456 0 5.86274 0 6.36365C0 6.86456 0.408182 7.27274 0.909091 7.27274H19.0909C19.5918 7.27274 20 6.86456 20 6.36365C20 5.86274 19.5918 5.45456 19.0909 5.45456Z" fill="#21628A"/>
<path fill-rule="evenodd" clip-rule="evenodd" d="M3.6996 12.8445L2.79051 15.1172C2.60596 15.5826 2.83324 16.1117 3.29869 16.2999C3.76415 16.4845 4.29324 16.2572 4.48142 15.7917L5.39051 13.519C5.57506 13.0535 5.34778 12.5245 4.88233 12.3363C4.41687 12.1517 3.88778 12.379 3.6996 12.8445ZM14.6087 13.519L15.5178 15.7917C15.7069 16.2572 16.236 16.4845 16.7005 16.2999C17.166 16.1117 17.3932 15.5826 17.2087 15.1172L16.2996 12.8445C16.1114 12.379 15.5823 12.1517 15.1169 12.3363C14.6514 12.5245 14.4241 13.0535 14.6087 13.519ZM5.40778 3.63627H5.45415L5.49324 3.63264C5.66687 3.60809 6.36324 3.47264 6.36324 2.72354C6.36324 1.22173 5.14142 -9.15527e-05 3.6396 -9.15527e-05H3.63596C2.13051 -9.15527e-05 0.908691 1.22173 0.908691 2.72718V6.36354C0.908691 6.86445 1.31687 7.27264 1.81778 7.27264C2.31869 7.27264 2.72687 6.86445 2.72687 6.36354V2.72718C2.72687 2.22627 3.13506 1.81809 3.63596 1.81809H3.6396C4.13324 1.81809 4.53415 2.21627 4.54506 2.709C4.54506 2.68445 4.54869 2.66354 4.54869 2.64536C4.54506 2.67082 4.54506 2.699 4.54506 2.72718C4.54506 3.21354 4.92869 3.61173 5.40778 3.63627Z" fill="#21628A"/>
</svg>
