<svg width="20" height="14" viewBox="0 0 20 14" fill="none" xmlns="http://www.w3.org/2000/svg">
<path fill-rule="evenodd" clip-rule="evenodd" d="M16.3636 1.81818H10.9091C9.90727 1.81818 9.09091 2.63455 9.09091 3.63636V8.18182H1.81818V0.909091C1.81818 0.408182 1.41 0 0.909091 0C0.408182 0 0 0.408182 0 0.909091V12.7273C0 13.2282 0.408182 13.6364 0.909091 13.6364C1.41 13.6364 1.81818 13.2282 1.81818 12.7273V10.9091H18.1818V12.7273C18.1818 13.2282 18.59 13.6364 19.0909 13.6364C19.5918 13.6364 20 13.2282 20 12.7273V5.45455C20 3.44455 18.3736 1.81818 16.3636 1.81818ZM5.45455 7.27273C6.96364 7.27273 8.18182 6.05455 8.18182 4.54545C8.18182 3.03636 6.96364 1.81818 5.45455 1.81818C3.94545 1.81818 2.72727 3.03636 2.72727 4.54545C2.72727 6.05455 3.94545 7.27273 5.45455 7.27273Z" fill="#21628A"/>
</svg>
