<svg width="22" height="25" viewBox="0 0 22 25" fill="none" xmlns="http://www.w3.org/2000/svg">
<path d="M16.7062 18.7277C15.7031 17.5 14.9949 16.875 14.9949 13.4902C14.9949 10.3906 13.4121 9.28633 12.1093 8.75C11.9363 8.67891 11.7734 8.51562 11.7207 8.33789C11.4921 7.56016 10.8515 6.875 9.99995 6.875C9.14839 6.875 8.50737 7.56055 8.2812 8.33867C8.22846 8.51836 8.06557 8.67891 7.89253 8.75C6.58823 9.28711 5.00698 10.3875 5.00698 13.4902C5.00503 16.875 4.29682 17.5 3.2937 18.7277C2.87807 19.2363 3.24214 20 3.96909 20H16.0347C16.7578 20 17.1195 19.234 16.7062 18.7277Z" stroke="#252B5C" stroke-width="1.25" stroke-linecap="round" stroke-linejoin="round"/>
<path d="M12.5 20V20.625C12.5 21.288 12.2366 21.9239 11.7678 22.3928C11.2989 22.8616 10.663 23.125 10 23.125C9.33696 23.125 8.70107 22.8616 8.23223 22.3928C7.76339 21.9239 7.5 21.288 7.5 20.625V20" stroke="#252B5C" stroke-width="1.25" stroke-linecap="round" stroke-linejoin="round"/>
<circle cx="16" cy="6" r="6" fill="white"/>
<circle cx="16" cy="6" r="3" fill="#FD5F4A"/>
</svg>
