<svg width="44" height="44" viewBox="0 0 44 44" fill="none" xmlns="http://www.w3.org/2000/svg">
<path fill-rule="evenodd" clip-rule="evenodd" d="M29.2037 25.25L26.6637 24.96C26.0537 24.89 25.4537 25.1 25.0237 25.53L23.1837 27.37C20.3537 25.93 18.0337 23.62 16.5937 20.78L18.4437 18.93C18.8737 18.5 19.0837 17.9 19.0137 17.29L18.7237 14.77C18.6037 13.76 17.7537 13 16.7337 13H15.0037C13.8737 13 12.9337 13.94 13.0037 15.07C13.5337 23.61 20.3637 30.43 28.8937 30.96C30.0237 31.03 30.9637 30.09 30.9637 28.96V27.23C30.9737 26.22 30.2137 25.37 29.2037 25.25ZM16.54 15C16.6 15.89 16.75 16.76 16.99 17.59L15.79 18.79C15.38 17.59 15.12 16.32 15.03 15H16.54ZM29 27.47C28.12 27.41 27.25 27.26 26.4 27.02L25.2 28.21C26.41 28.61 27.68 28.87 29 28.96V27.47Z" fill="#234F68"/>
</svg>
