<svg width="25" height="25" viewBox="0 0 25 25" fill="none" xmlns="http://www.w3.org/2000/svg">
<path fill-rule="evenodd" clip-rule="evenodd" d="M12.4995 4.96725L12.4679 4.967C12.0211 4.967 11.5878 5.11473 11.2366 5.38565L11.2365 5.38569L5.6334 9.70653L5.63305 9.70679C5.15804 10.0727 4.87723 10.6288 4.86324 11.2194L5.59821 17.0005C5.67088 17.5721 5.69768 17.7552 5.76685 17.955C5.83809 18.1607 5.90042 18.2689 6.11167 18.6212C6.36213 19.0388 6.5066 19.182 6.74937 19.4227L6.75878 19.432C6.92898 19.6007 7.26235 19.7669 7.6982 19.8882C7.953 19.9591 8.20058 20.0032 8.40021 20.0269V18C8.40021 17.4106 8.56386 16.5622 9.10175 15.8151C9.69839 14.9865 10.6787 14.4 12.0002 14.4H13.0002C13.5896 14.4 14.438 14.5637 15.1851 15.1016C16.0138 15.6982 16.6002 16.6785 16.6002 18V20.0267C16.7996 20.003 17.0466 19.959 17.3007 19.8882C17.7366 19.7669 18.0699 19.6007 18.2401 19.432L18.2495 19.4227C18.4923 19.182 18.6368 19.0388 18.8872 18.6212C19.0985 18.2689 19.1608 18.1607 19.2321 17.955C19.3012 17.7552 19.328 17.5721 19.4007 17.0005L20.1357 11.2194C20.1217 10.6288 19.8409 10.0727 19.3659 9.70679L19.3655 9.70653L13.7624 5.38569L13.7623 5.38565C13.4111 5.11473 12.9778 4.967 12.531 4.967L12.4995 4.96725V4.11867L14.7395 4.11872L20.3422 8.43924L20.3426 8.4395C21.2208 9.11614 21.7362 10.159 21.7362 11.2657C21.7362 11.2995 21.7341 11.3332 21.7298 11.3666L20.9879 17.2023L20.9803 17.2621C20.918 17.7536 20.8734 18.1047 20.744 18.4785C20.6148 18.8517 20.4726 19.0888 20.2748 19.4184L20.2594 19.4441C19.9091 20.0282 19.6609 20.2764 19.3666 20.5682C18.9064 21.0245 18.2577 21.2827 17.7297 21.4297C17.2719 21.557 16.8132 21.6254 16.4654 21.6439C16.4645 21.6459 16.4636 21.6478 16.4627 21.6498H15.0002V18.5C15.0002 18.0354 15.0002 17.803 14.9618 17.6098C14.804 16.8165 14.1838 16.1963 13.3904 16.0384C13.1972 16 12.9649 16 12.5002 16C12.0356 16 11.8032 16 11.61 16.0384C10.8166 16.1963 10.1965 16.8165 10.0386 17.6098C10.0002 17.803 10.0002 18.0354 10.0002 18.5V21.6498H8.53767C8.53681 21.6479 8.53595 21.6459 8.53509 21.644C8.18705 21.6256 7.72766 21.5572 7.26925 21.4297C6.74124 21.2827 6.09247 21.0245 5.63228 20.5682C5.338 20.2764 5.08981 20.0282 4.73952 19.4441L4.72411 19.4184C4.52635 19.0888 4.38415 18.8517 4.25492 18.4785C4.12547 18.1047 4.08093 17.7536 4.01858 17.2621L4.01099 17.2023L3.26908 11.3666C3.26483 11.3332 3.2627 11.2995 3.2627 11.2657C3.2627 10.159 3.77812 9.11614 4.65634 8.4395L4.65668 8.43924L10.2594 4.11872L12.4995 4.11867V4.96725ZM12.4995 4.11865L10.2595 4.11867C10.8917 3.63108 11.6688 3.367 12.4679 3.367L12.4995 3.36714V4.11865ZM12.4995 4.11865L14.7394 4.11867C14.1072 3.63108 13.3301 3.367 12.531 3.367L12.4995 3.36714V4.11865Z" fill="#252B5C"/>
</svg>
