<svg width="24" height="24" viewBox="0 0 24 24" fill="none" xmlns="http://www.w3.org/2000/svg">
<path d="M20 5H13V4C13 3.73478 12.8946 3.48043 12.7071 3.29289C12.5196 3.10536 12.2652 3 12 3C11.7348 3 11.4804 3.10536 11.2929 3.29289C11.1054 3.48043 11 3.73478 11 4V5H4C3.73478 5 3.48043 5.10536 3.29289 5.29289C3.10536 5.48043 3 5.73478 3 6C3 6.26522 3.10536 6.51957 3.29289 6.70711C3.48043 6.89464 3.73478 7 4 7H15.8821C15.4325 9.99763 14.0543 12.7788 11.9415 14.9523C10.4781 13.4507 9.35971 11.6483 8.66406 9.67041C8.57638 9.4203 8.39302 9.21522 8.15425 9.10019C7.91548 8.98517 7.64082 8.96962 7.39059 9.05696C7.14036 9.14429 6.93502 9.32737 6.81967 9.56599C6.70433 9.8046 6.6884 10.0792 6.77539 10.3296C7.5592 12.5573 8.81447 14.5896 10.4555 16.2878C8.76324 17.6227 6.79108 18.5577 4.68651 19.0229C4.44578 19.0758 4.23303 19.2156 4.08908 19.4157C3.94513 19.6157 3.88011 19.8619 3.9065 20.1069C3.93289 20.352 4.04882 20.5786 4.23207 20.7435C4.41531 20.9083 4.65295 20.9996 4.89941 21C4.97164 21 5.04366 20.9923 5.11426 20.977C7.62085 20.4241 9.9614 19.287 11.9453 17.6581C13.9341 19.2856 16.2778 20.4225 18.7871 20.977C19.0454 21.0314 19.3148 20.9814 19.5364 20.8379C19.758 20.6945 19.9139 20.4692 19.9701 20.2113C20.0263 19.9534 19.9782 19.6837 19.8364 19.4611C19.6945 19.2385 19.4704 19.0809 19.2129 19.0229C17.1022 18.5584 15.1233 17.6242 13.4233 16.2897C15.8681 13.7507 17.4344 10.4948 17.8923 7H20C20.2652 7 20.5196 6.89464 20.7071 6.70711C20.8946 6.51957 21 6.26522 21 6C21 5.73478 20.8946 5.48043 20.7071 5.29289C20.5196 5.10536 20.2652 5 20 5Z" fill="black"/>
</svg>
