<svg width="7" height="9" viewBox="0 0 7 9" fill="none" xmlns="http://www.w3.org/2000/svg">
<path d="M6.5 3.75C6.5 5.40675 3.5 8.25 3.5 8.25C3.5 8.25 0.5 5.40675 0.5 3.75C0.5 2.95435 0.816071 2.19129 1.37868 1.62868C1.94129 1.06607 2.70435 0.75 3.5 0.75C4.29565 0.75 5.05871 1.06607 5.62132 1.62868C6.18393 2.19129 6.5 2.95435 6.5 3.75V3.75Z" fill="#234F68"/>
<path d="M3.50005 4.0499C3.6194 4.0499 3.73386 4.00249 3.81825 3.9181C3.90264 3.83371 3.95005 3.71925 3.95005 3.5999C3.95005 3.48055 3.90264 3.3661 3.81825 3.2817C3.73386 3.19731 3.6194 3.1499 3.50005 3.1499C3.3807 3.1499 3.26624 3.19731 3.18185 3.2817C3.09746 3.3661 3.05005 3.48055 3.05005 3.5999C3.05005 3.71925 3.09746 3.83371 3.18185 3.9181C3.26624 4.00249 3.3807 4.0499 3.50005 4.0499V4.0499Z" fill="white" stroke="white" stroke-width="1.25" stroke-linecap="round" stroke-linejoin="round"/>
</svg>
