<svg width="44" height="44" viewBox="0 0 44 44" fill="none" xmlns="http://www.w3.org/2000/svg">
<path fill-rule="evenodd" clip-rule="evenodd" d="M21.0016 14.0027C21.0016 13.4527 21.4516 13.0027 22.0016 13.0027C22.5516 13.0027 23.0016 13.4527 23.0016 14.0027V22.0027C23.0016 22.5527 22.5516 23.0027 22.0016 23.0027C21.4516 23.0027 21.0016 22.5527 21.0016 22.0027V14.0027ZM27.1316 17.2527C26.7616 16.8627 26.7516 16.2527 27.1416 15.8627C27.5416 15.4627 28.2016 15.4727 28.5816 15.8827C30.0816 17.4827 31.0016 19.6227 31.0016 21.9927C31.0016 27.0627 26.8116 31.1527 21.7116 30.9927C16.8316 30.8427 12.8616 26.6227 13.0016 21.7427C13.0716 19.4727 13.9816 17.4227 15.4316 15.8827C15.8116 15.4727 16.4616 15.4627 16.8616 15.8627C17.2416 16.2427 17.2416 16.8527 16.8716 17.2427C15.7116 18.4927 15.0016 20.1627 15.0016 22.0027C15.0016 25.9027 18.1816 29.0527 22.0916 28.9927C25.9216 28.9527 29.0916 25.6527 29.0016 21.8227C28.9616 20.0527 28.2616 18.4527 27.1316 17.2527Z" fill="#234F68"/>
</svg>
