<?xml version="1.0" encoding="UTF-8"?>
<svg xmlns="http://www.w3.org/2000/svg" version="1.1" viewBox="332 443.36 637 240.64"><path d="M0 0 C5.89113167 1.23605592 11.65109137 2.69827214 17.40625 4.45849609 C18.19290039 4.69620224 18.97955078 4.93390839 19.79003906 5.17881775 C22.36110544 5.95684831 24.93062016 6.73985677 27.5 7.5234375 C29.30399722 8.07163183 31.10803436 8.61969479 32.91210938 9.16763306 C36.68171012 10.3135053 40.45048365 11.46205222 44.21875 12.61230469 C49.028166 14.07996159 53.84007682 15.53924573 58.65270996 16.9963131 C62.37558247 18.1247789 66.09682158 19.25855691 69.81762695 20.3938179 C71.59033952 20.9338316 73.3636063 21.47202966 75.13745117 22.00831223 C98.8743882 29.19120475 98.8743882 29.19120475 105.2265625 35.703125 C106.1134375 36.60160156 107.0003125 37.50007812 107.9140625 38.42578125 C108.80867187 39.35777344 109.70328125 40.28976562 110.625 41.25 C111.52734375 42.16652344 112.4296875 43.08304688 113.359375 44.02734375 C117.18114037 47.93267542 120.93422081 51.86781251 124.4921875 56.015625 C128.88408992 61.11514763 133.71020795 65.77795607 138.5 70.5 C144.01180259 75.93384215 149.38877516 81.36622561 154.41210938 87.25585938 C156.73273491 89.80483675 159.28547664 91.88134762 162 94 C165.19176092 90.83760418 168.3776081 87.66931241 171.5625 84.5 C172.45775391 83.613125 173.35300781 82.72625 174.27539062 81.8125 C178.12318984 77.97879529 181.93302438 74.16030813 185.46484375 70.03125 C190.45035745 64.21591985 196.00652533 58.93726625 201.45703125 53.56347656 C206.6743498 48.41295656 211.81891884 43.25367577 216.5625 37.65625 C217.036875 37.1096875 217.51125 36.563125 218 36 C218.54327942 35.2891626 218.54327942 35.2891626 219.09753418 34.56396484 C221.98358562 32.19142131 225.35465629 31.37887025 228.87695312 30.3203125 C229.67902191 30.07110046 230.4810907 29.82188843 231.3074646 29.56512451 C233.96268031 28.74265116 236.62182428 27.93374677 239.28125 27.125 C241.13414963 26.55432196 242.9868075 25.98285843 244.8392334 25.41064453 C249.72492115 23.90402439 254.61411493 22.40909821 259.50402832 20.91625977 C263.46953202 19.70348746 267.43246138 18.4824354 271.3952713 17.26089478 C276.14804746 15.79605329 280.90199217 14.33502449 285.65625 12.875 C286.55251602 12.59964417 287.44878204 12.32428833 288.37220764 12.04058838 C297.54603929 9.22570104 306.71191889 6.41972214 316 4 C314.73862984 7.78411049 312.88354939 9.24580563 310 12 C308.98869318 13.00128914 307.97984266 14.00506372 306.97314453 15.01098633 C306.43553497 15.54536819 305.89792542 16.07975006 305.34402466 16.63032532 C302.90894701 19.05187548 300.47665038 21.47621155 298.04443359 23.90063477 C296.76929384 25.17074662 295.49325789 26.43995939 294.21630859 27.70825195 C285.23823738 36.6092685 285.23823738 36.6092685 276.78076172 45.9987793 C272.11284132 51.24459003 266.96750394 56.07898031 261.97021484 61.00927734 C256.69223295 66.22287294 251.52830807 71.45008401 246.71191406 77.10058594 C244.78474078 79.23883582 242.7397444 81.18737713 240.6328125 83.1484375 C239.89289063 83.84453125 239.15296875 84.540625 238.390625 85.2578125 C236.87151119 86.67739816 235.33732327 88.08101125 233.7890625 89.46875 C233.056875 90.16742187 232.3246875 90.86609375 231.5703125 91.5859375 C230.90789551 92.1948584 230.24547852 92.8037793 229.56298828 93.43115234 C227.17923471 96.93225201 227.17923471 96.93225201 227 106 C182.45 106 137.9 106 92 106 C91.505 101.545 91.505 101.545 91 97 C89.13240777 94.56977351 87.63044206 92.89510457 85.375 90.9375 C84.26641653 89.90689427 83.15963541 88.87434634 82.0546875 87.83984375 C81.52198242 87.35112793 80.98927734 86.86241211 80.44042969 86.35888672 C78.6578381 84.67720794 77.07086708 82.87956981 75.5 81 C72.0245645 76.91125235 68.21899763 73.19183316 64.40454102 69.42407227 C61.04939106 66.0941767 57.90274548 62.66068601 54.83984375 59.05859375 C52.49504936 56.43501277 50.00369432 53.97009896 47.5 51.5 C44.40508867 48.44661717 41.38065743 45.37676339 38.5625 42.0625 C35.54647173 38.523209 32.30552099 35.26505555 29 32 C25.12593484 28.17330229 21.43997977 24.28965514 17.91796875 20.1328125 C14.85746682 16.72948448 11.56336921 13.55530522 8.26171875 10.38671875 C4.96496549 7.16763769 2.43450299 3.91612176 0 0 Z " fill="#FEFEFE" transform="translate(498,519)"></path><path d="M0 0 C-0.67204468 0.66418945 -0.67204468 0.66418945 -1.35766602 1.34179688 C-3.42870096 3.39176683 -5.49560697 5.44585433 -7.5625 7.5 C-8.26697266 8.19609375 -8.97144531 8.8921875 -9.69726562 9.609375 C-13.77121611 13.66455152 -17.6436032 17.81881681 -21.39428711 22.17382812 C-23.65255158 24.74214472 -26.05282463 27.11040523 -28.5 29.5 C-31.61803626 32.5714984 -34.65894084 35.66721906 -37.5 39 C-40.7823339 42.85043015 -44.35254849 46.38145579 -47.95092773 49.93139648 C-51.20000607 53.15366448 -54.22443863 56.49340645 -57.19140625 59.97265625 C-60.17650116 63.31879936 -63.40882768 66.41593952 -66.59765625 69.56640625 C-68.63714373 71.63242365 -70.555078 73.73005549 -72.4375 75.9375 C-75.30172355 79.28925096 -78.36334093 82.40556417 -81.5 85.5 C-84.61579123 88.57390527 -87.65877238 91.66702145 -90.5 95 C-93.7823339 98.85043015 -97.35254849 102.38145579 -100.95092773 105.93139648 C-104.19870114 109.15237032 -107.22231947 112.49036514 -110.1875 115.96875 C-113.13057678 119.2670257 -116.30720996 122.32679609 -119.47265625 125.41015625 C-121.93570741 127.72875935 -121.93570741 127.72875935 -123.05737305 129.79199219 C-125.37832907 133.41060133 -127.23480442 134.77745831 -131.41577148 135.9934082 C-135.8229706 136.79255635 -140.21587392 137.02506262 -144.6875 137.125 C-145.48169342 137.1496936 -146.27588684 137.17438721 -147.09414673 137.1998291 C-158.36176403 137.34663475 -165.90254445 134.99955728 -174.26435852 127.34292603 C-191.89989227 110.10413 -191.89989227 110.10413 -192 104 C-190.93554688 102.22851562 -190.93554688 102.22851562 -189.21875 100.40625 C-188.5690625 99.71015625 -187.919375 99.0140625 -187.25 98.296875 C-182.13048136 93.07069972 -176.94806708 87.91344095 -171.73828125 82.77734375 C-167.87260237 78.94513395 -164.04206076 75.13588913 -160.5 71 C-155.28319713 64.90859736 -149.4451226 59.40346598 -143.73828125 53.77734375 C-142.84496094 52.89175781 -141.95164062 52.00617188 -141.03125 51.09375 C-140.15960205 50.23249512 -139.2879541 49.37124023 -138.38989258 48.48388672 C-136.26727687 46.27778884 -134.4176965 44.01556483 -132.54296875 41.6015625 C-128.50248475 36.90409889 -123.62783305 35.55425178 -117.8125 33.875 C-116.75675781 33.54717529 -115.70101562 33.21935059 -114.61328125 32.8815918 C-111.41602752 31.89517946 -108.20970845 30.94497755 -105 30 C-103.18042607 29.44847029 -101.36137881 28.89519873 -99.54296875 28.33984375 C-96.22953198 27.33264507 -92.91202941 26.34122041 -89.58984375 25.36328125 C-85.39735415 24.12619605 -81.22857796 22.82281539 -77.0625 21.5 C-71.09399421 19.610613 -65.08942611 17.88037457 -59.0625 16.1875 C-51.1142142 13.94776174 -43.23574799 11.52953763 -35.375 9 C-34.32876465 8.66387695 -33.2825293 8.32775391 -32.20458984 7.98144531 C-27.24017539 6.38161997 -22.2822824 4.76421141 -17.33203125 3.12109375 C-16.02322998 2.69280273 -16.02322998 2.69280273 -14.68798828 2.25585938 C-13.06758917 1.72553543 -11.44985397 1.18697293 -9.83544922 0.63867188 C-6.10984846 -0.57326043 -3.73918679 -1.17903215 0 0 Z " fill="#FEFEFE" transform="translate(794,444)"></path><path d="M0 0 C0 0.33 0 0.66 0 1 C-7.22330783 0.43709372 -14.16835629 -0.74748493 -21.25 -2.25 C-35.77144848 -5.23057498 -50.35406649 -7.71543521 -65 -10 C-66.63582031 -10.26079346 -66.63582031 -10.26079346 -68.3046875 -10.52685547 C-95.98049335 -14.8617731 -123.99863757 -16.79899792 -151.91812897 -18.84648895 C-153.97346828 -18.99804363 -156.02859179 -19.15226009 -158.0836792 -19.30718994 C-246.63305025 -25.95519494 -336.38521339 -25.27417557 -425 -20 C-427.61441574 -19.84854936 -430.22883632 -19.69718217 -432.84326172 -19.54589844 C-450.24107778 -18.5254322 -467.62293419 -17.32603217 -485 -16 C-486.25661438 -15.9041864 -487.51322876 -15.8083728 -488.80792236 -15.70965576 C-516.07261044 -13.61860579 -543.31285256 -11.31743419 -570.5 -8.375 C-571.87088776 -8.22757858 -571.87088776 -8.22757858 -573.26947021 -8.07717896 C-585.17918727 -6.78509343 -597.01406038 -5.16627713 -608.8515625 -3.33032227 C-613.47870637 -2.6188989 -618.11467649 -1.96803648 -622.75 -1.3125 C-624.11705078 -1.11817383 -624.11705078 -1.11817383 -625.51171875 -0.91992188 C-627.67438191 -0.61259606 -629.83717476 -0.30618309 -632 0 C-629.28225428 -2.71774572 -627.22879565 -2.65421082 -623.44140625 -3.26171875 C-622.76315796 -3.37292557 -622.08490967 -3.48413239 -621.3861084 -3.59870911 C-619.11276835 -3.96949494 -616.837741 -4.3285775 -614.5625 -4.6875 C-612.94251493 -4.94852445 -611.32264405 -5.21025844 -609.70288086 -5.47265625 C-606.24908988 -6.0313494 -602.79463562 -6.58571666 -599.33984375 -7.13818359 C-594.09729622 -7.97993296 -588.86092943 -8.85644763 -583.625 -9.73828125 C-532.69015484 -18.28313391 -481.5302288 -24.53058781 -430 -28 C-429.07435242 -28.06316406 -428.14870483 -28.12632812 -427.19500732 -28.19140625 C-331.37819959 -34.70914076 -234.74759386 -36.23531196 0 0 Z " fill="#FEFEFE" transform="translate(964,683)"></path><path d="M0 0 C3.54120058 1.50910012 5.81604365 3.57119314 8.51953125 6.2890625 C9.80633789 7.57876953 9.80633789 7.57876953 11.11914062 8.89453125 C12.45235352 10.24611328 12.45235352 10.24611328 13.8125 11.625 C14.68970703 12.50285156 15.56691406 13.38070313 16.47070312 14.28515625 C20.27623358 18.11630359 24.02368925 21.95755478 27.54296875 26.0546875 C31.61073252 30.78836767 36.05415195 35.12438652 40.5 39.5 C45.64077794 44.55956502 50.63900248 49.64138442 55.33789062 55.11523438 C58.07931618 58.22390143 61.039569 61.10185073 64 64 C71.31571173 71.23189677 71.31571173 71.23189677 74.4375 74.9375 C77.89038596 79.02621151 81.70077198 82.73734698 85.5 86.5 C89.8653112 90.82328655 94.10613961 95.14676831 98.06640625 99.84765625 C101.50404919 103.67420426 105.21626343 107.23487796 108.87158203 110.85205078 C112.56896752 114.52562698 116.10346491 118.26660132 119.46875 122.25 C121.74866525 124.85561743 124.22438386 127.24946047 126.71484375 129.65234375 C128 131 128 131 128 132 C114.47 132 100.94 132 87 132 C87.061875 128.596875 87.12375 125.19375 87.1875 121.6875 C87.13304806 113.54121639 87.13304806 113.54121639 83.73046875 106.37109375 C80.96413732 103.61835098 80.96413732 103.61835098 78.0546875 101.4140625 C74.87635337 98.90228438 72.4967132 96.2205007 69.88330078 93.14990234 C66.61108254 89.41446628 63.04135963 85.97800794 59.5 82.5 C54.73142226 77.81672776 50.15024034 73.08033648 45.79101562 68.01367188 C42.52809 64.34510446 39.00151288 60.93887401 35.5 57.5 C30.67002212 52.75642602 26.01947807 47.95878194 21.60351562 42.82617188 C19.3471653 40.2565159 16.94698745 37.88941128 14.5 35.5 C10.76453573 31.82037416 7.22034071 28.05162652 3.83984375 24.04296875 C0.72242747 20.58137913 -2.73560211 17.45594394 -6.15625 14.296875 C-8 12 -8 12 -8.00390625 9.96875 C-6.76857104 7.5461471 -5.27468605 5.75420296 -3.4375 3.75 C-2.79683594 3.04359375 -2.15617188 2.3371875 -1.49609375 1.609375 C-0.75552734 0.81273437 -0.75552734 0.81273437 0 0 Z " fill="#FEFEFE" transform="translate(796,450)"></path><path d="M0 0 C4.28359673 1.8855148 6.15103592 4.35965701 9 8 C8.10698344 9.06486855 7.2104053 10.12675041 6.3125 11.1875 C5.56419922 12.07501953 5.56419922 12.07501953 4.80078125 12.98046875 C2.62452877 15.42108162 0.32730011 17.7024101 -2 20 C-12.38580212 30.15697807 -12.38580212 30.15697807 -22.1328125 40.9140625 C-25.30370243 44.45643744 -28.71997412 47.76075856 -32.11962891 51.08251953 C-34.98322569 53.90064852 -37.70605948 56.77557331 -40.32421875 59.82421875 C-44.41693153 64.56141749 -48.85181886 68.9245276 -53.3125 73.3125 C-54.91507597 74.88957754 -56.51544087 76.46890596 -58.11328125 78.05078125 C-58.81235596 78.73825439 -59.51143066 79.42572754 -60.23168945 80.1340332 C-64.32792542 84.45648681 -64.23717749 87.23379658 -64.1328125 92.89746094 C-63.91484868 97.9891599 -63.4782224 103.05196508 -63 108.125 C-62.34592071 115.11657729 -61.88316609 121.97536099 -62 129 C-73.67625589 131.95162889 -85.50498639 133.8899647 -97.375 135.875 C-99.4678743 136.22701637 -101.56072896 136.57914948 -103.65356445 136.93139648 C-107.81723522 137.63111466 -111.98141182 138.32771318 -116.14599609 139.02197266 C-120.6120463 139.76678497 -125.07649814 140.52050928 -129.54016113 141.27947998 C-132.42921315 141.76919546 -135.31937991 142.25200624 -138.21002197 142.73223877 C-140.14458777 143.05533317 -142.077928 143.38573881 -144.01123047 143.71630859 C-145.1560791 143.90402832 -146.30092773 144.09174805 -147.48046875 144.28515625 C-148.45910889 144.44894775 -149.43774902 144.61273926 -150.44604492 144.78149414 C-152.9404288 144.99490333 -154.63944124 144.77687072 -157 144 C-153.43805379 143.10195611 -149.87532897 142.20703471 -146.3125 141.3125 C-145.34376953 141.06822266 -144.37503906 140.82394531 -143.37695312 140.57226562 C-134.80231869 138.42180175 -126.20498279 136.37232362 -117.60375977 134.33129883 C-112.94037625 133.22458904 -108.27888844 132.11014223 -103.6181488 130.99235535 C-99.93955481 130.1101947 -96.26043732 129.2302284 -92.58129883 128.3503418 C-90.70123285 127.90025987 -88.82135629 127.44938613 -86.94165039 126.99780273 C-84.17643847 126.33368947 -81.41056104 125.67241609 -78.64453125 125.01171875 C-77.38078423 124.70713997 -77.38078423 124.70713997 -76.09150696 124.39640808 C-70.22773902 123 -70.22773902 123 -68 123 C-70.31 115.41 -72.62 107.82 -75 100 C-81.27 99.67 -87.54 99.34 -94 99 C-94 97 -94 97 -91.81591797 94.6887207 C-90.88666504 93.80144287 -89.95741211 92.91416504 -89 92 C-88.18289551 91.18813232 -87.36579102 90.37626465 -86.52392578 89.53979492 C-85.6729834 88.69521729 -84.82204102 87.85063965 -83.9453125 86.98046875 C-82.49911726 85.54165542 -81.05340855 84.10235519 -79.60791016 82.6628418 C-78.623788 81.68374233 -77.63876938 80.70554305 -76.65283203 79.72827148 C-71.48643286 74.60588941 -66.43161396 69.44888557 -61.69873047 63.91918945 C-57.80077438 59.5153618 -53.51027954 55.47431747 -49.31640625 51.35546875 C-45.97618155 48.05148519 -42.71988829 44.73826328 -39.6640625 41.16796875 C-35.02137722 35.77273843 -29.92654846 30.81964845 -24.875 25.8125 C-23.88908623 24.83161806 -22.90340779 23.85049951 -21.91796875 22.86914062 C-20.10544559 21.06469432 -18.29134218 19.26189548 -16.47607422 17.46020508 C-12.27332716 13.28439339 -8.13553361 9.1069406 -4.1875 4.6875 C-3.00220703 3.36298828 -3.00220703 3.36298828 -1.79296875 2.01171875 C-0.90544922 1.01591797 -0.90544922 1.01591797 0 0 Z " fill="#FEFEFE" transform="translate(493,525)"></path><path d="M0 0 C6.55432028 5.46193357 12.62178943 11.22228852 18.1875 17.6953125 C22.24091427 22.35479431 26.5982091 26.67206465 31 31 C35.9598035 35.87658532 40.75509344 40.79070492 45.2890625 46.06640625 C48.20650746 49.3635187 51.35786963 52.41898337 54.5 55.5 C58.86747515 59.82091697 63.1063392 64.14700523 67.06640625 68.84765625 C69.91951474 72.02354065 72.96639442 74.99740967 76 78 C82.4333778 84.37358335 88.34006298 90.92507872 94 98 C86.74 98 79.48 98 72 98 C71.34 100.97 70.68 103.94 70 107 C68.74662636 111.3593616 67.36584333 115.67482946 66 120 C66.99080566 120.22131592 67.98161133 120.44263184 69.00244141 120.6706543 C79.67916582 123.09665066 90.18583322 125.96827614 100.69558716 129.03155518 C115.21701194 133.26398676 129.74227738 137.38196641 144.44482422 140.94458008 C145.44400879 141.19232178 146.44319336 141.44006348 147.47265625 141.6953125 C148.33125244 141.90172363 149.18984863 142.10813477 150.07446289 142.32080078 C152 143 152 143 153 145 C140.69115591 142.61812031 128.43760655 140.01999538 116.19723511 137.30923462 C107.58035711 135.40353008 98.95267041 133.56428199 90.3046875 131.8046875 C89.40931778 131.62240601 88.51394806 131.44012451 87.59144592 131.25231934 C83.17247927 130.35429377 78.75233974 129.4624672 74.33081055 128.57714844 C72.72183027 128.25201338 71.11286158 127.92682099 69.50390625 127.6015625 C68.75756927 127.45395477 68.0112323 127.30634705 67.24227905 127.15426636 C62.11308207 126.11308207 62.11308207 126.11308207 61 125 C60.29915582 115.9542205 61.36872563 106.85966353 62.28833008 97.8684082 C62.55143188 95.24699589 62.78822302 92.62603457 63 90 C63.06195557 89.23896973 63.12391113 88.47793945 63.18774414 87.69384766 C63.33619606 84.47552908 63.31224625 82.46715283 61.49609375 79.75 C60.47708984 78.88375 60.47708984 78.88375 59.4375 78 C56.66373024 75.57768255 54.17933008 73.1039754 51.78515625 70.3125 C47.75159569 65.63778998 43.40057635 61.32674118 39 57 C34.01972716 52.10328878 29.20132017 47.16880284 24.6484375 41.87109375 C22.0677923 38.94187799 19.29094447 36.22694937 16.5 33.5 C12.40958682 29.46062274 8.48562289 25.37524846 4.765625 20.98828125 C1.0469754 16.8006869 -3.00542765 12.92223603 -7 9 C-5.27845212 5.23511958 -3.00765886 2.84936103 0 0 Z " fill="#FEFEFE" transform="translate(816,529)"></path><path d="M0 0 C0 14.52 0 29.04 0 44 C-7.88888889 37.23809524 -7.88888889 37.23809524 -10.5 34.6328125 C-11.36032837 33.77538452 -11.36032837 33.77538452 -12.23803711 32.90063477 C-12.81948486 32.31467529 -13.40093262 31.72871582 -14 31.125 C-14.61302979 30.51003662 -15.22605957 29.89507324 -15.85766602 29.26147461 C-19.5475899 25.53617933 -23.11686712 21.75469061 -26.46875 17.71875 C-28.00073386 15.92708703 -28.00073386 15.92708703 -29.96875 14.28125 C-34.81081081 10.05405405 -34.81081081 10.05405405 -35.4375 6.5625 C-35.4375 4.32977926 -35.31552529 2.20867703 -35 0 C-32.98786001 -0.87444881 -30.96476435 -1.7237108 -28.9375 -2.5625 C-27.24947266 -3.27599609 -27.24947266 -3.27599609 -25.52734375 -4.00390625 C-17.2277196 -6.34765393 -7.81200112 -2.0832003 0 0 Z " fill="#FEFEFE" transform="translate(885,490)"></path><path d="M0 0 C0.33 0.99 0.66 1.98 1 3 C0.50628906 3.38929688 0.01257813 3.77859375 -0.49609375 4.1796875 C-1.13675781 4.73914063 -1.77742187 5.29859375 -2.4375 5.875 C-3.39462891 6.67550781 -3.39462891 6.67550781 -4.37109375 7.4921875 C-6.86279014 10.90874991 -6.86279014 10.90874991 -7 20 C-51.55 20 -96.1 20 -142 20 C-142.33 17.03 -142.66 14.06 -143 11 C-144.88246031 7.99385591 -144.88246031 7.99385591 -147 6 C-145.25 5.25 -145.25 5.25 -143 5 C-140.75 6.5 -140.75 6.5 -139 9 C-139 11.31 -139 13.62 -139 16 C-96.76 16 -54.52 16 -11 16 C-11 13.69 -11 11.38 -11 9 C-9.1015625 6.34765625 -9.1015625 6.34765625 -6.625 4.0625 C-5.40683594 2.90427734 -5.40683594 2.90427734 -4.1640625 1.72265625 C-2 0 -2 0 0 0 Z " fill="#FEFEFE" transform="translate(732,605)"></path><path d="M0 0 C0.30859375 2.671875 0.30859375 2.671875 0 6 C-2.15234375 8.703125 -2.15234375 8.703125 -4.9375 11.25 C-8.4254762 14.27853595 -8.4254762 14.27853595 -11 18 C-11.66 18 -12.32 18 -13 18 C-13.20496094 18.53109375 -13.40992188 19.0621875 -13.62109375 19.609375 C-15.5873206 23.01824422 -18.26223081 25.51195901 -21.0625 28.25 C-21.89491211 29.08144531 -21.89491211 29.08144531 -22.74414062 29.9296875 C-26.85956743 34 -26.85956743 34 -28 34 C-28 22.45 -28 10.9 -28 -1 C-9.09375 -5.36298077 -9.09375 -5.36298077 0 0 Z " fill="#FEFEFE" transform="translate(454,556)"></path> --&gt;<path d="M0 0 C0.28515625 2.19921875 0.28515625 2.19921875 0 5 C-1.94140625 7.39453125 -1.94140625 7.39453125 -4.5625 9.8125 C-7.61432283 12.65993895 -10.46992021 15.49519397 -13.18359375 18.66796875 C-18.52588668 24.85711297 -24.44342114 30.48665422 -30.26171875 36.22265625 C-39.85268215 45.17985451 -39.85268215 45.17985451 -47 56 C-46.50371094 56.4846875 -46.00742187 56.969375 -45.49609375 57.46875 C-42.05857322 60.86061086 -38.70620931 64.26983914 -35.5625 67.9375 C-35.01577637 68.55117432 -34.46905273 69.16484863 -33.90576172 69.79711914 C-32 72 -32 72 -30.28320312 74.328125 C-26.92740843 78.41050162 -24.43654661 80.69162463 -19.17749023 81.82055664 C-14.76360204 82.21314814 -10.3633413 82.14716662 -5.9375 82.0625 C-4.38865838 82.06557985 -2.83981926 82.07270787 -1.29101562 82.08398438 C2.47424964 82.10268326 6.23531596 82.06654986 10 82 C10.44158447 81.06945801 10.44158447 81.06945801 10.89208984 80.12011719 C12.16139198 77.69115735 13.65558819 76.14647063 15.625 74.25 C16.25664063 73.63640625 16.88828125 73.0228125 17.5390625 72.390625 C18.02117187 71.93171875 18.50328125 71.4728125 19 71 C19.66 71.33 20.32 71.66 21 72 C18.51490977 77.26607817 15.7468236 81.51377511 11 85 C5.4041879 86.8102532 0.0417915 87.18189605 -5.8125 87.25 C-6.99629745 87.27954773 -6.99629745 87.27954773 -8.20401001 87.30969238 C-20.54376619 87.40889083 -28.30534881 84.11870733 -37.12182617 75.51855469 C-52.91572587 59.13866649 -52.91572587 59.13866649 -53 54 C-51.93554688 52.22851562 -51.93554688 52.22851562 -50.21875 50.40625 C-49.5690625 49.71015625 -48.919375 49.0140625 -48.25 48.296875 C-43.13048136 43.07069972 -37.94806708 37.91344095 -32.73828125 32.77734375 C-28.22939719 28.30749765 -23.87700987 23.7996278 -19.74707031 18.97851562 C-16.37354355 15.15807671 -12.73691818 11.59323584 -9.125 8 C-7.96871094 6.83791016 -7.96871094 6.83791016 -6.7890625 5.65234375 C-6.056875 4.92144531 -5.3246875 4.19054687 -4.5703125 3.4375 C-3.90789551 2.77621094 -3.24547852 2.11492187 -2.56298828 1.43359375 C-1 0 -1 0 0 0 Z " fill="#FEFEFE" transform="translate(655,494)"></path><path d="M0 0 C4.29 0 8.58 0 13 0 C13 4.29 13 8.58 13 13 C8.71 13 4.42 13 0 13 C0 8.71 0 4.42 0 0 Z " fill="#FEFEFE" transform="translate(506,587)"></path><path d="M0 0 C4.29 0 8.58 0 13 0 C13 4.29 13 8.58 13 13 C8.71 13 4.42 13 0 13 C0 8.71 0 4.42 0 0 Z " fill="#FEFEFE" transform="translate(490,587)"></path><path d="M0 0 C3.96 0 7.92 0 12 0 C12 4.29 12 8.58 12 13 C8.04 13 4.08 13 0 13 C0 8.71 0 4.42 0 0 Z " fill="#FEFEFE" transform="translate(490,604)"></path><path d="M0 0 C3.96 0 7.92 0 12 0 C12 3.96 12 7.92 12 12 C8.04 12 4.08 12 0 12 C0 8.04 0 4.08 0 0 Z " fill="#FEFEFE" transform="translate(807,605)"></path><path d="M0 0 C3.96 0 7.92 0 12 0 C12 3.96 12 7.92 12 12 C8.04 12 4.08 12 0 12 C0 8.04 0 4.08 0 0 Z " fill="#FEFEFE" transform="translate(791,605)"></path><path d="M0 0 C3.96 0 7.92 0 12 0 C12 3.96 12 7.92 12 12 C8.04 12 4.08 12 0 12 C0 8.04 0 4.08 0 0 Z " fill="#FEFEFE" transform="translate(507,604)"></path><path d="M0 0 C3.96 0 7.92 0 12 0 C12 3.96 12 7.92 12 12 C8.04 12 4.08 12 0 12 C0 8.04 0 4.08 0 0 Z " fill="#FEFEFE" transform="translate(807,589)"></path><path d="M0 0 C3.96 0 7.92 0 12 0 C12 3.96 12 7.92 12 12 C8.04 12 4.08 12 0 12 C0 8.04 0 4.08 0 0 Z " fill="#FEFEFE" transform="translate(791,589)"></path><path d="M0 0 C0.66 1.32 1.32 2.64 2 4 C-0.97 6.97 -3.94 9.94 -7 13 C-7.99 12.01 -8.98 11.02 -10 10 C-6.7 6.7 -3.4 3.4 0 0 Z " fill="#FEFEFE" transform="translate(684,554)"></path><path d="M0 0 C0.36116409 3.25047681 0.30929204 4.58761061 -1.6875 7.25 C-4.20062862 9.15182706 -5.89903219 9.65544802 -9 10 C-7.85488963 7.02271304 -3.65933899 0 0 0 Z " fill="#FEFEFE" transform="translate(655,494)"></path><path d="M0 0 C0.66 0 1.32 0 2 0 C2.33 0.99 2.66 1.98 3 3 C-0.32307692 6.93846154 -0.32307692 6.93846154 -3.75 7.25 C-4.4925 7.1675 -5.235 7.085 -6 7 C-5.04882866 5.8274869 -4.08882991 4.66212985 -3.125 3.5 C-2.59132813 2.8503125 -2.05765625 2.200625 -1.5078125 1.53125 C-0.76144531 0.77328125 -0.76144531 0.77328125 0 0 Z " fill="#FEFEFE" transform="translate(730,605)"></path><path d="M0 0 C1.65 1.65 3.3 3.3 5 5 C3.02 5.99 3.02 5.99 1 7 C-2 3.25 -2 3.25 -2 1 C-1.34 0.67 -0.68 0.34 0 0 Z " fill="#FEFEFE" transform="translate(643,597)"></path></svg>
