<svg width="44" height="44" viewBox="0 0 44 44" fill="none" xmlns="http://www.w3.org/2000/svg">
<path fill-rule="evenodd" clip-rule="evenodd" d="M30 14H14C12.9 14 12.01 14.9 12.01 16L12 28C12 29.1 12.9 30 14 30H30C31.1 30 32 29.1 32 28V16C32 14.9 31.1 14 30 14ZM14 16.5C14 16.2239 14.2239 16 14.5 16H29.5C29.7761 16 30 16.2239 30 16.5V27.5C30 27.7761 29.7761 28 29.5 28H14.5C14.2239 28 14 27.7761 14 27.5V16.5ZM22.466 22.3172L28.6817 18.4313C28.9015 18.2906 29.0334 18.0532 29.0334 17.7983C29.0334 17.2092 28.3916 16.8576 27.8905 17.1653L22 20.849L16.1095 17.1653C15.6084 16.8576 14.9666 17.2092 14.9666 17.7983C14.9666 18.0532 15.0985 18.2906 15.3183 18.4313L21.534 22.3172C21.8154 22.4931 22.1846 22.4931 22.466 22.3172Z" fill="#234F68"/>
</svg>
