<svg width="22" height="22" viewBox="0 0 22 22" fill="none" xmlns="http://www.w3.org/2000/svg">
<path d="M3.66667 7.79159H5.27083M5.27083 7.79159C5.69628 7.79159 6.10431 7.96059 6.40515 8.26143C6.70599 8.56227 6.875 8.9703 6.875 9.39575C6.875 9.8212 6.70599 10.2292 6.40515 10.5301C6.10431 10.8309 5.69628 10.9999 5.27083 10.9999H2.75M5.27083 7.79159C5.69628 7.79159 6.10431 7.62258 6.40515 7.32174C6.70599 7.0209 6.875 6.61287 6.875 6.18742C6.875 5.76197 6.70599 5.35394 6.40515 5.0531C6.10431 4.75226 5.69628 4.58325 5.27083 4.58325H2.75" stroke="#252B5C" stroke-width="1.4" stroke-linecap="round" stroke-linejoin="round"/>
<path d="M19.7998 14.3C19.7998 16.5735 16.5671 18.4439 12.4205 18.6758M3.2998 14.3C3.2998 16.5314 6.41389 18.3745 10.4498 18.6613L7.1498 20.9M10.4498 18.7L8.2498 15.62" stroke="#252B5C" stroke-width="1.4" stroke-linecap="round" stroke-linejoin="round"/>
<path d="M12.8332 4.58325H11.9165C11.1872 4.58325 10.4877 4.87298 9.97196 5.38871C9.45623 5.90443 9.1665 6.60391 9.1665 7.33325V9.16659M9.1665 9.16659C9.1665 9.65282 9.35966 10.1191 9.70348 10.4629C10.0473 10.8068 10.5136 10.9999 10.9998 10.9999H11.4582C11.9444 10.9999 12.4107 10.8068 12.7545 10.4629C13.0983 10.1191 13.2915 9.65282 13.2915 9.16659V8.70825C13.2915 8.22202 13.0983 7.75571 12.7545 7.41189C12.4107 7.06807 11.9444 6.87492 11.4582 6.87492H10.9998C10.5136 6.87492 10.0473 7.06807 9.70348 7.41189C9.35966 7.75571 9.1665 8.22202 9.1665 8.70825V9.16659Z" stroke="#252B5C" stroke-width="1.4" stroke-linecap="round" stroke-linejoin="round"/>
<path d="M15.5835 7.79159V6.41659C15.5835 5.93035 15.7767 5.46404 16.1205 5.12022C16.4643 4.77641 16.9306 4.58325 17.4168 4.58325H17.8752C18.3614 4.58325 18.8277 4.77641 19.1715 5.12022C19.5153 5.46404 19.7085 5.93035 19.7085 6.41659V9.16659C19.7085 9.65282 19.5153 10.1191 19.1715 10.4629C18.8277 10.8068 18.3614 10.9999 17.8752 10.9999H17.4168C16.9306 10.9999 16.4643 10.8068 16.1205 10.4629C15.7767 10.1191 15.5835 9.65282 15.5835 9.16659V7.79159Z" stroke="#252B5C" stroke-width="1.4" stroke-linecap="round" stroke-linejoin="round"/>
<ellipse cx="19.2502" cy="1.6501" rx="0.549999" ry="0.55" fill="#252B5C" stroke="#252B5C" stroke-width="1.4"/>
</svg>
