<svg width="25" height="34" viewBox="0 0 25 34" fill="none" xmlns="http://www.w3.org/2000/svg">
<path fill-rule="evenodd" clip-rule="evenodd" d="M12.4996 6.70001C11.2929 6.70001 10.1356 7.17939 9.2823 8.03268C8.42901 8.88597 7.94963 10.0433 7.94963 11.25C7.94963 12.4567 8.42901 13.6141 9.2823 14.4673C9.6036 14.7887 9.96801 15.0569 10.3619 15.2666C8.93816 15.6162 7.62351 16.3493 6.56963 17.4032C6.37427 17.5986 6.18992 17.8029 6.01698 18.0152C5.93551 18.0542 5.85931 18.1078 5.7923 18.1759C5.4824 18.4908 5.48645 18.9973 5.80136 19.3072C7.52425 21.0027 9.89041 22.0502 12.4996 22.0502C14.958 22.0502 17.201 21.1203 18.8932 19.5943C19.2213 19.2984 19.2474 18.7926 18.9515 18.4644C18.8857 18.3914 18.8094 18.3333 18.727 18.2904C18.6976 18.2054 18.6533 18.124 18.5937 18.0499C18.4127 17.8251 18.2189 17.6092 18.013 17.4032C17.0272 16.4174 15.8132 15.7122 14.4951 15.3391C14.9437 15.1202 15.3573 14.827 15.717 14.4673C16.5703 13.6141 17.0496 12.4567 17.0496 11.25C17.0496 10.0433 16.5703 8.88597 15.717 8.03268C14.8637 7.17939 13.7064 6.70001 12.4996 6.70001Z" fill="#234F68"/>
<circle cx="12.5" cy="31.5" r="2.5" fill="#234F68"/>
</svg>
