<svg width="20" height="20" viewBox="0 0 20 20" fill="none" xmlns="http://www.w3.org/2000/svg">
<path d="M18.5547 8.14844C18.5353 8.06107 18.4974 7.97889 18.4434 7.90745C18.3895 7.83602 18.3209 7.777 18.2422 7.73438L16.3828 6.70313C16.2832 6.50101 16.171 6.30532 16.0469 6.11719L16.086 3.99219C16.0867 3.90306 16.069 3.81474 16.0341 3.73274C15.9991 3.65075 15.9476 3.57684 15.8828 3.51563C14.957 2.67622 13.8621 2.04487 12.6719 1.66406C12.5864 1.63741 12.4963 1.6292 12.4074 1.63997C12.3185 1.65075 12.2329 1.68026 12.1563 1.72656L10.336 2.82031C10.1094 2.8125 9.89064 2.8125 9.66408 2.82031L7.84377 1.72656C7.76714 1.68026 7.68155 1.65075 7.59266 1.63997C7.50378 1.6292 7.41362 1.63741 7.32814 1.66406C6.13632 2.04516 5.04098 2.67945 4.11721 3.52344C4.05185 3.58254 3.9999 3.65496 3.96487 3.73581C3.92983 3.81666 3.91251 3.90408 3.91408 3.99219L3.95314 6.11719C3.82814 6.30469 3.71877 6.5 3.60939 6.70313L1.75002 7.73438C1.67246 7.77744 1.60509 7.83672 1.55251 7.90817C1.49993 7.97963 1.46338 8.06158 1.44533 8.14844C1.17968 9.36852 1.17968 10.6315 1.44533 11.8516C1.46474 11.9389 1.50268 12.0211 1.55659 12.0925C1.61051 12.164 1.67913 12.223 1.75783 12.2656L3.61721 13.2969C3.71688 13.499 3.82908 13.6947 3.95314 13.8828L3.91408 16.0078C3.91337 16.0969 3.93104 16.1853 3.96599 16.2673C4.00093 16.3493 4.05241 16.4232 4.11721 16.4844C5.04302 17.3238 6.13789 17.9551 7.32814 18.3359C7.41362 18.3626 7.50378 18.3708 7.59266 18.36C7.68155 18.3493 7.76714 18.3197 7.84377 18.2734L9.66408 17.1797H10.336L12.1641 18.2734C12.2591 18.3359 12.3707 18.3686 12.4844 18.3672C12.5479 18.3644 12.6109 18.3539 12.6719 18.3359C13.8637 17.9548 14.9591 17.3206 15.8828 16.4766C15.9482 16.4175 16.0001 16.345 16.0352 16.2642C16.0702 16.1833 16.0875 16.0959 16.086 16.0078L16.0469 13.8828C16.1719 13.6953 16.2813 13.5 16.3906 13.2969L18.25 12.2656C18.3276 12.2226 18.3949 12.1633 18.4475 12.0918C18.5001 12.0204 18.5367 11.9384 18.5547 11.8516C18.8204 10.6315 18.8204 9.36852 18.5547 8.14844ZM17.3828 11.3125L15.6094 12.2969C15.4969 12.3623 15.407 12.4604 15.3516 12.5781C15.2231 12.8444 15.0742 13.1004 14.9063 13.3438C14.8349 13.4529 14.7969 13.5805 14.7969 13.7109L14.8281 15.7344C14.1555 16.3071 13.3855 16.7543 12.5547 17.0547L10.8125 16.0078C10.7153 15.9512 10.6047 15.9215 10.4922 15.9219H10.4453C10.1489 15.9453 9.85112 15.9453 9.55471 15.9219C9.42662 15.9149 9.2992 15.9447 9.18752 16.0078L7.44533 17.0547C6.61555 16.7557 5.8457 16.3113 5.17189 15.7422L5.20314 13.7109C5.2031 13.5805 5.16509 13.4529 5.09377 13.3438C4.92873 13.0986 4.77997 12.8428 4.64846 12.5781C4.59077 12.4619 4.50139 12.3644 4.39064 12.2969L2.61721 11.3125C2.46091 10.4445 2.46091 9.55552 2.61721 8.6875L4.39064 7.70313C4.50315 7.63774 4.59308 7.53963 4.64846 7.42188C4.77699 7.1556 4.92587 6.89963 5.09377 6.65625C5.16509 6.54706 5.2031 6.41948 5.20314 6.28906L5.17189 4.26563C5.84451 3.69291 6.61456 3.2457 7.44533 2.94531L9.18752 3.99219C9.29887 4.05614 9.42654 4.08602 9.55471 4.07813C9.85112 4.05468 10.1489 4.05468 10.4453 4.07813C10.5734 4.08512 10.7008 4.0553 10.8125 3.99219L12.5547 2.94531C13.3845 3.24425 14.1543 3.68871 14.8281 4.25781L14.7969 6.28906C14.7969 6.41948 14.8349 6.54706 14.9063 6.65625C15.0713 6.90143 15.2201 7.15719 15.3516 7.42188C15.4093 7.53807 15.4986 7.63558 15.6094 7.70313L17.3828 8.6875C17.5391 9.55552 17.5391 10.4445 17.3828 11.3125ZM10 5.625C9.13473 5.625 8.28886 5.88159 7.5694 6.36232C6.84993 6.84305 6.28918 7.52633 5.95805 8.32576C5.62691 9.12519 5.54027 10.0049 5.70908 10.8535C5.87789 11.7022 6.29457 12.4817 6.90643 13.0936C7.51828 13.7054 8.29783 14.1221 9.1465 14.2909C9.99517 14.4597 10.8748 14.3731 11.6743 14.042C12.4737 13.7108 13.157 13.1501 13.6377 12.4306C14.1184 11.7112 14.375 10.8653 14.375 10C14.375 8.83968 13.9141 7.72688 13.0936 6.90641C12.2731 6.08594 11.1603 5.625 10 5.625ZM10 13.125C9.38195 13.125 8.77777 12.9417 8.26386 12.5983C7.74996 12.255 7.34942 11.7669 7.1129 11.1959C6.87637 10.6249 6.81449 9.99653 6.93506 9.39034C7.05564 8.78415 7.35327 8.22733 7.79031 7.79029C8.22735 7.35325 8.78417 7.05563 9.39036 6.93505C9.99655 6.81447 10.6249 6.87635 11.1959 7.11288C11.7669 7.3494 12.255 7.74994 12.5984 8.26384C12.9417 8.77775 13.125 9.38193 13.125 10C13.125 10.8288 12.7958 11.6237 12.2097 12.2097C11.6237 12.7958 10.8288 13.125 10 13.125Z" fill="#234F68"/>
</svg>
