<svg width="16" height="16" viewBox="0 0 16 16" fill="none" xmlns="http://www.w3.org/2000/svg">
<path fill-rule="evenodd" clip-rule="evenodd" d="M13.5674 4.08375V11.9163C13.5194 11.9124 13.4715 11.9099 13.4236 11.9099C12.5874 11.9099 11.9101 12.5872 11.9101 13.4234C11.9101 13.4549 11.9113 13.4865 11.914 13.518H4.08646C4.08911 13.4865 4.09024 13.4549 4.09024 13.4234C4.09024 12.5872 3.41169 11.9099 2.57673 11.9099C2.54015 11.9099 2.50484 11.9113 2.46826 11.9149V4.08501C2.50484 4.08879 2.54015 4.09006 2.57673 4.09006C3.41169 4.09006 4.09024 3.41276 4.09024 2.57654C4.09024 2.52357 4.08772 2.4706 4.08268 2.41888H11.9176C11.9126 2.4706 11.9101 2.52357 11.9101 2.57654C11.9101 3.41276 12.5874 4.09006 13.4236 4.09006C13.4715 4.09006 13.5194 4.08753 13.5674 4.08375Z" stroke="#21628A"/>
<path fill-rule="evenodd" clip-rule="evenodd" d="M4.09002 2.57656C4.09002 3.41278 3.41146 4.09008 2.5765 4.09008C2.53993 4.09008 2.50461 4.08882 2.46803 4.08503C1.68227 4.0308 1.06299 3.3762 1.06299 2.57656C1.06299 1.74035 1.74029 1.06305 2.5765 1.06305C3.35848 1.06305 4.00299 1.6571 4.08232 2.41891C4.08737 2.47062 4.09002 2.52359 4.09002 2.57656Z" stroke="#21628A"/>
<path fill-rule="evenodd" clip-rule="evenodd" d="M14.9372 2.57656C14.9372 3.36485 14.3343 4.01062 13.5675 4.08377C13.5195 4.08755 13.4716 4.09008 13.4237 4.09008C12.5875 4.09008 11.9102 3.41278 11.9102 2.57656C11.9102 2.52359 11.9127 2.47062 11.9177 2.41891C11.9971 1.6571 12.6404 1.06305 13.4237 1.06305C14.2586 1.06305 14.9372 1.74035 14.9372 2.57656Z" stroke="#21628A"/>
<path fill-rule="evenodd" clip-rule="evenodd" d="M4.09002 13.4234C4.09002 13.4549 4.08875 13.4864 4.08623 13.518C4.0383 14.31 3.37993 14.9369 2.5765 14.9369C1.74029 14.9369 1.06299 14.2597 1.06299 13.4234C1.06299 12.6237 1.68227 11.9693 2.46803 11.9149C2.50461 11.9112 2.53993 11.9099 2.5765 11.9099C3.41146 11.9099 4.09002 12.5871 4.09002 13.4234Z" stroke="#21628A"/>
<path fill-rule="evenodd" clip-rule="evenodd" d="M14.9372 13.4234C14.9372 14.2597 14.2586 14.9369 13.4237 14.9369C12.619 14.9369 11.9619 14.31 11.9139 13.518C11.9114 13.4864 11.9102 13.4549 11.9102 13.4234C11.9102 12.5871 12.5875 11.9099 13.4237 11.9099C13.4716 11.9099 13.5195 11.9125 13.5675 11.9163C14.3343 11.9894 14.9372 12.6351 14.9372 13.4234Z" stroke="#21628A"/>
</svg>
